<?xml version="1.0" encoding="UTF-8"?>
<svg xmlns="http://www.w3.org/2000/svg" 
     id="logo" 
     viewBox="0 0 131 24" 
     fill="currentColor"
     width="131" 
     height="24">
	<path d="M18.5797 2.54625V0.0187531H0.315355V3.7125H13.0534L0 21.435V23.9625H18.7336V20.2688H5.55626L18.5797 2.54625Z"/>
	<path d="M40.6132 7.21875C40.1477 5.82 39.4006 4.52625 38.4132 3.4125C37.4447 2.34 36.2508 1.48875 34.9143 0.911247C33.4351 0.299997 31.8358 -0.00750306 30.2253 0.0187469C28.641 0.00374694 27.0717 0.314997 25.6188 0.933747C24.2748 1.51125 23.0772 2.3625 22.1011 3.435C21.11 4.545 20.3517 5.835 19.8674 7.23C19.3343 8.775 19.0715 10.3987 19.0902 12.0262C19.0752 13.6425 19.3268 15.2512 19.8411 16.7887C20.3104 18.1837 21.0575 19.4737 22.0411 20.5837C23.0172 21.66 24.2223 22.5112 25.5738 23.085C27.053 23.7075 28.6523 24.0187 30.2628 24C31.8396 24.015 33.4014 23.7037 34.8467 23.085C36.187 22.5037 37.3883 21.6525 38.3644 20.5837C39.3593 19.4775 40.1177 18.1912 40.5982 16.7962C41.1276 15.2625 41.3866 13.65 41.3716 12.03C41.3904 10.395 41.1351 8.77125 40.617 7.21875H40.6132ZM36.8778 15.7162H36.8628C36.5361 16.68 36.0181 17.5725 35.3348 18.3337C34.7116 19.0087 33.9382 19.545 33.0785 19.8937C32.185 20.25 31.2277 20.43 30.2628 20.4262C29.2867 20.4337 28.3181 20.2537 27.4096 19.8937C26.5424 19.545 25.7653 19.0125 25.1383 18.3337C24.4513 17.5687 23.9294 16.6762 23.5991 15.7087C23.1936 14.5162 22.9984 13.2637 23.0209 12.0037C22.9984 10.74 23.1899 9.48375 23.5878 8.28C23.9107 7.3125 24.4325 6.42 25.1233 5.655C25.754 4.9725 26.5349 4.43625 27.4059 4.08375C29.2304 3.36375 31.269 3.36375 33.0898 4.08375C33.957 4.43625 34.7341 4.9725 35.3648 5.655C36.0481 6.42 36.5699 7.3125 36.8928 8.28C37.2907 9.48 37.4822 10.74 37.4597 12.0037C37.4747 13.2637 37.2757 14.5162 36.8703 15.7125L36.8778 15.7162Z"/>
	<path d="M107.153 3.41625C106.181 2.34375 104.979 1.48875 103.632 0.914999C102.16 0.296249 100.572 -0.0150013 98.9689 -1.32955e-06C97.3846 -0.0150013 95.8154 0.296249 94.3625 0.914999C93.0185 1.4925 91.8209 2.34375 90.8448 3.41625C89.8537 4.52625 89.0953 5.81625 88.611 7.21125C88.0779 8.75625 87.8151 10.38 87.8339 12.0075C87.8189 13.6237 88.0704 15.2325 88.5847 16.77C89.054 18.165 89.8011 19.455 90.7847 20.565C91.7608 21.6412 92.9659 22.4925 94.3174 23.0662C95.7966 23.6887 97.3959 24 99.0065 23.9812C100.583 23.9962 102.145 23.685 103.59 23.0662C104.931 22.485 106.132 21.6337 107.108 20.565C108.103 19.4662 108.865 18.1837 109.349 16.7962C109.875 15.2625 110.138 13.65 110.123 12.03C110.142 10.395 109.886 8.77125 109.368 7.21875C108.899 5.82 108.144 4.52625 107.153 3.4125V3.41625ZM105.629 15.7162H105.614C105.287 16.68 104.769 17.5725 104.086 18.3337C103.463 19.0087 102.689 19.545 101.83 19.8937C100.936 20.25 99.9788 20.43 99.014 20.4262C98.0341 20.4337 97.0618 20.2537 96.1533 19.8937C95.286 19.545 94.5089 19.0125 93.882 18.3337C93.1949 17.5687 92.6731 16.6762 92.3427 15.7087C91.9373 14.5162 91.742 13.2637 91.7646 12.0037C91.742 10.74 91.9335 9.48375 92.3315 8.28C92.6543 7.3125 93.1762 6.42 93.8594 5.655C94.4901 4.97625 95.2673 4.44 96.1345 4.08375C97.9591 3.36375 99.9976 3.36375 101.818 4.08375C102.686 4.43625 103.463 4.9725 104.093 5.655C104.777 6.42 105.299 7.3125 105.621 8.28C106.027 9.48 106.226 10.74 106.207 12.0037C106.222 13.2637 106.027 14.5162 105.621 15.7125L105.629 15.7162Z"/>
	<path d="M85.6564 5.76375C85.4049 4.95375 85.0407 4.185 84.5677 3.47625C84.0797 2.76 83.4565 2.1375 82.7357 1.64625C81.9322 1.10625 81.0425 0.701248 80.1002 0.449998C77.7613 -0.131252 75.3135 -0.116252 72.9822 0.487498C72.0061 0.761248 71.09 1.2 70.2716 1.78125C69.5208 2.3175 68.8863 2.9925 68.3945 3.765C67.9252 4.52625 67.5686 5.35125 67.3433 6.21375C67.2044 6.765 67.1068 7.32375 67.0542 7.89C66.9979 8.475 66.9641 9.045 66.9641 9.585V23.9662H70.9737V9.51C70.9737 9.1125 70.9962 8.68875 71.0375 8.26125C71.075 7.87875 71.1464 7.50375 71.259 7.13625C71.4054 6.6225 71.6307 6.13125 71.931 5.68125C72.2126 5.2575 72.5692 4.89 72.9859 4.59C73.4439 4.27125 73.9545 4.03125 74.4951 3.88125C75.1746 3.69375 75.8804 3.6075 76.5862 3.61875C77.7651 3.55875 78.9326 3.84375 79.9463 4.44C80.7797 4.99125 81.4067 5.7975 81.7295 6.7275C81.8834 7.155 81.9923 7.60125 82.0486 8.05125C82.12 8.535 82.1537 9.02625 82.1575 9.5175V23.9662H86.167V9.5775C86.167 8.93625 86.1295 8.29125 86.0506 7.65375C85.9793 7.0125 85.8517 6.37875 85.6602 5.76375H85.6564Z"/>
	<path d="M126.968 0.0187531V14.4713C126.968 14.8688 126.945 15.2925 126.9 15.72C126.863 16.1025 126.788 16.4775 126.679 16.845C126.529 17.3588 126.307 17.85 126.011 18.3C125.729 18.7238 125.369 19.0913 124.952 19.3913C124.494 19.71 123.983 19.95 123.443 20.1C122.774 20.2838 122.08 20.3738 121.382 20.3625C120.199 20.4263 119.024 20.1413 118.01 19.5413C117.177 18.99 116.554 18.1838 116.231 17.2538C116.077 16.8263 115.968 16.38 115.908 15.93C115.837 15.4463 115.803 14.955 115.799 14.4638V0.0187531H111.79V14.4038C111.79 15.045 111.831 15.69 111.906 16.3275C111.977 16.9688 112.105 17.6025 112.296 18.2175C112.548 19.0275 112.916 19.7963 113.385 20.505C113.873 21.2213 114.496 21.8438 115.221 22.335C116.021 22.875 116.907 23.28 117.841 23.535C120.177 24.1163 122.628 24.1013 124.956 23.4975C125.939 23.2275 126.867 22.7888 127.689 22.2C128.44 21.6638 129.078 20.9888 129.566 20.2163C130.035 19.455 130.388 18.63 130.617 17.7675C130.756 17.2163 130.85 16.6575 130.906 16.0913C130.966 15.5288 130.996 14.9625 130.996 14.3963V0.0187531H126.964H126.968Z"/>
	<path d="M64.5389 7.21875C64.0734 5.82 63.3263 4.52625 62.3389 3.4125C61.3704 2.34 60.1765 1.48875 58.84 0.911249C57.3683 0.296249 55.7803 -0.0150013 54.1773 -1.28388e-06C52.593 -0.0150013 51.0237 0.296249 49.5708 0.914999C48.2268 1.4925 47.0292 2.34375 46.0531 3.41625C45.062 4.52625 44.3036 5.81625 43.8193 7.21125C43.2862 8.75625 43.0234 10.38 43.0422 12.0075C43.0272 13.6237 43.2787 15.2325 43.7931 16.77C44.2623 18.165 45.0094 19.455 45.993 20.565C46.9691 21.6412 48.1742 22.4925 49.5258 23.0662C51.0049 23.6887 52.6042 24 54.2148 23.9812C55.7916 23.9962 57.3533 23.685 58.7987 23.0662C60.139 22.485 61.3403 21.6337 62.3164 20.565C63.2963 19.4625 64.0471 18.1837 64.5201 16.7962C65.0495 15.2625 65.3085 13.65 65.2935 12.03C65.3123 10.395 65.057 8.77125 64.5389 7.21875ZM61.3704 12.0075C61.3891 13.2675 61.1977 14.52 60.7997 15.7162H60.7922C60.4656 16.68 59.9475 17.5725 59.2642 18.3337C58.641 19.0087 57.8677 19.545 57.0079 19.8937C56.1144 20.25 55.1571 20.43 54.1923 20.4262C53.2124 20.4337 52.2401 20.2537 51.3315 19.8937C50.4643 19.545 49.6872 19.0125 49.0602 18.3337C48.3732 17.5687 47.8514 16.6762 47.521 15.7087C47.1193 14.5125 46.9241 13.2637 46.9504 12.0037C46.9278 10.74 47.1155 9.48375 47.5135 8.28C47.8364 7.3125 48.3582 6.42 49.049 5.655C49.6759 4.9725 50.4531 4.43625 51.3203 4.08375C53.1448 3.36375 55.1834 3.36375 57.0042 4.08375C57.8714 4.43625 58.6485 4.9725 59.2792 5.655C59.9663 6.42 60.4844 7.3125 60.8072 8.28C61.2953 9.76125 61.4004 10.44 61.3741 12.0037L61.3704 12.0075Z"/>
</svg> 