<svg xmlns="http://www.w3.org/2000/svg" viewBox="0 0 300 53"><defs><linearGradient id="a" x2="300" y1="26.5" y2="26.5" gradientUnits="userSpaceOnUse"><stop offset="0" stop-color="#55539f"/><stop offset=".07" stop-color="#5a6ba6"/><stop offset=".2" stop-color="#6291b1"/><stop offset=".32" stop-color="#67acb9"/><stop offset=".42" stop-color="#6bbcbe"/><stop offset=".5" stop-color="#6cc2c0"/><stop offset=".62" stop-color="#6ec2ba"/><stop offset=".79" stop-color="#74c1aa"/><stop offset=".97" stop-color="#7dc08f"/><stop offset="1" stop-color="#7ec08b"/></linearGradient></defs><path fill="url(#a)" d="M11.85 44.58h28.09v8.07H0v-5.52L27.83 8.42H.67V.35h38.94v5.52zm80.3-28.5a24 24 0 00-4.69-8.31A21.53 21.53 0 0080 2.31 24.4 24.4 0 0070 .35a24 24 0 00-9.82 2 21.71 21.71 0 00-7.5 5.46 24.72 24.72 0 00-4.76 8.29 31.9 31.9 0 00-1.66 10.48 32.59 32.59 0 001.6 10.4 24.24 24.24 0 004.69 8.29 21.46 21.46 0 007.53 5.46 24.56 24.56 0 0010 2 23.78 23.78 0 009.77-2 22 22 0 007.5-5.46A24.25 24.25 0 0092.11 37a31.83 31.83 0 001.65-10.41 32.6 32.6 0 00-1.61-10.51zm-8 18.56a16.55 16.55 0 01-3.26 5.72 13.49 13.49 0 01-4.81 3.41 15.54 15.54 0 01-6 1.16A15.93 15.93 0 0164 43.77a13.34 13.34 0 01-4.84-3.41 16.79 16.79 0 01-3.28-5.73 24.44 24.44 0 01-1.23-8.09 25 25 0 011.21-8.13 16.37 16.37 0 013.27-5.73A13.51 13.51 0 0164 9.25a16.15 16.15 0 0112.12 0 13.63 13.63 0 014.85 3.43 16.51 16.51 0 013.26 5.73 25 25 0 011.21 8.13 24.83 24.83 0 01-1.26 8.1zm62-18.56a24 24 0 00-4.69-8.31A21.53 21.53 0 00134 2.31a24.4 24.4 0 00-9.95-2 24 24 0 00-9.82 2 21.71 21.71 0 00-7.5 5.46 24.72 24.72 0 00-4.76 8.29 31.9 31.9 0 00-1.66 10.48 32.59 32.59 0 001.6 10.4 24.24 24.24 0 004.69 8.29 21.46 21.46 0 007.53 5.46 24.56 24.56 0 0010 2 23.74 23.74 0 009.77-2 22 22 0 007.5-5.46 24.25 24.25 0 004.7-8.23 31.83 31.83 0 001.65-10.41 32.6 32.6 0 00-1.61-10.51zm-8 18.56a16.55 16.55 0 01-3.26 5.72 13.49 13.49 0 01-4.81 3.41 15.54 15.54 0 01-6 1.16 15.93 15.93 0 01-6.1-1.16 13.34 13.34 0 01-4.84-3.41 16.79 16.79 0 01-3.28-5.73 24.45 24.45 0 01-1.22-8.09 25 25 0 011.2-8.13 16.37 16.37 0 013.27-5.73 13.51 13.51 0 014.84-3.43 16.15 16.15 0 0112.12 0 13.63 13.63 0 014.85 3.43 16.42 16.42 0 013.26 5.73 25.11 25.11 0 011.21 8.13 24.88 24.88 0 01-1.22 8.1zm57.19-21.74a19.71 19.71 0 00-2.32-5 15.11 15.11 0 00-3.91-4 18.57 18.57 0 00-5.62-2.61 30.19 30.19 0 00-15.18.08 18.34 18.34 0 00-5.78 2.83 15.51 15.51 0 00-4 4.33 20 20 0 00-2.24 5.35 26.07 26.07 0 00-.62 3.66c-.12 1.28-.19 2.52-.19 3.7v31.41h8.55V21.08c0-.87.05-1.79.14-2.73a13.27 13.27 0 01.47-2.46 11.62 11.62 0 011.43-3.18 8.93 8.93 0 012.25-2.38 10.36 10.36 0 013.22-1.55 15.28 15.28 0 014.46-.57 12.61 12.61 0 017.16 1.79 9.84 9.84 0 013.8 5 13.92 13.92 0 01.68 2.89 23.63 23.63 0 01.23 3.2v31.56h8.55V21.23a35.42 35.42 0 00-.25-4.2 23.05 23.05 0 00-.83-4.13zm54.38 3.18A24.15 24.15 0 00245 7.77a21.47 21.47 0 00-7.51-5.46 24.36 24.36 0 00-9.94-2 24 24 0 00-9.82 2 21.71 21.71 0 00-7.5 5.46 24.72 24.72 0 00-4.76 8.29 31.9 31.9 0 00-1.66 10.48 32.59 32.59 0 001.6 10.4 24.15 24.15 0 004.69 8.29 21.46 21.46 0 007.53 5.46 24.56 24.56 0 0010 2 23.78 23.78 0 009.77-2 22 22 0 007.5-5.46 24.25 24.25 0 004.78-8.23 31.83 31.83 0 001.65-10.41 32.87 32.87 0 00-1.61-10.51zm-8 18.56a16.55 16.55 0 01-3.26 5.72 13.49 13.49 0 01-4.81 3.41 15.54 15.54 0 01-6 1.16 15.89 15.89 0 01-6.1-1.16 13.34 13.34 0 01-4.84-3.41 16.63 16.63 0 01-3.28-5.73 24.44 24.44 0 01-1.23-8.09 25 25 0 011.21-8.13 16.42 16.42 0 013.26-5.73 13.63 13.63 0 014.85-3.43 16.15 16.15 0 0112.12 0 13.63 13.63 0 014.85 3.43 16.51 16.51 0 013.26 5.73 25 25 0 011.25 8.13 24.83 24.83 0 01-1.25 8.1zM291.45.35v31.57c0 .87-.05 1.79-.14 2.73a13.27 13.27 0 01-.47 2.46 11.91 11.91 0 01-1.42 3.18 9.13 9.13 0 01-2.26 2.38 10.36 10.36 0 01-3.22 1.55 15.28 15.28 0 01-4.39.57 12.61 12.61 0 01-7.19-1.79 9.83 9.83 0 01-3.79-5 13.76 13.76 0 01-.69-2.89 23.63 23.63 0 01-.23-3.2V.35h-8.55v31.42a35.67 35.67 0 00.25 4.2 23.05 23.05 0 00.83 4.13 19.71 19.71 0 002.32 5 15.11 15.11 0 003.91 4 18.52 18.52 0 005.59 2.62 30.15 30.15 0 0015.17-.08 18.34 18.34 0 005.83-2.83 15.38 15.38 0 004-4.33 20.12 20.12 0 002.24-5.35 26.07 26.07 0 00.62-3.66 36.55 36.55 0 00.19-3.7V.35z"/></svg>